<?xml version="1.0" encoding="UTF-8" standalone="no"?>
<!-- Created with Inkscape (http://www.inkscape.org/) -->

<svg
   id="svg2"
   viewBox="0 0 1633.9 441.51"
   version="1.1"
   xmlns="http://www.w3.org/2000/svg"
   xmlns:svg="http://www.w3.org/2000/svg"
   xmlns:rdf="http://www.w3.org/1999/02/22-rdf-syntax-ns#"
   xmlns:cc="http://creativecommons.org/ns#"
   xmlns:dc="http://purl.org/dc/elements/1.1/">
  <defs
     id="defs4">
    <linearGradient
       id="linearGradient13026"
       y2="-11.676"
       gradientUnits="userSpaceOnUse"
       x2="11.625"
       y1="305.67"
       x1="11.625">
      <stop
         id="stop13022"
         stop-color="#0F0"
         offset="0" />
      <stop
         id="stop13024"
         stop-color="#F00"
         offset="1" />
    </linearGradient>
  </defs>
  <metadata
     id="metadata7">
    <rdf:RDF>
      <cc:Work
         rdf:about="">
        <dc:format>image/svg+xml</dc:format>
        <dc:type
           rdf:resource="http://purl.org/dc/dcmitype/StillImage" />
      </cc:Work>
    </rdf:RDF>
  </metadata>
  <style
     id="style7">
    .li { 
      stroke-linecap:round;
    }
    .da {
      stroke-dasharray:100,100;
    }
  </style>
  <path
     id="rect3031"
     class="li da"
     style="color:#000000;stroke:url(#linearGradient13026);enable-background:accumulate;fill:none"
     d="M 12.125,11.469 V 38.625 H 56.062 V 11.469 Z m 55.937,0 V 38.625 H 111.97 V 11.469 Z m 55.908,0 v 27.156 h 43.94 V 11.469 Z m 55.94,0 v 27.156 h 43.9 V 11.469 Z m 55.9,0 v 27.156 h 43.91 V 11.469 Z m 55.91,0 v 27.156 h 43.94 V 11.469 Z m 55.94,0 v 27.156 h 43.9 V 11.469 Z m 55.9,0 v 27.156 h 43.91 V 11.469 Z m 55.91,0 v 27.156 h 43.94 V 11.469 Z m 55.94,0 v 27.156 h 43.9 V 11.469 Z m 55.9,0 v 27.156 h 43.94 V 11.469 Z m 55.94,0 v 27.156 h 43.91 V 11.469 Z m 55.91,0 v 27.156 h 43.9 V 11.469 Z m 55.9,0 V 38.625 H 783 V 11.469 Z m 55.94,0 v 27.156 h 43.91 V 11.469 Z m 55.91,0 v 27.156 h 43.9 V 11.469 Z m 55.9,0 v 27.156 h 43.94 V 11.469 Z m 55.94,0 v 27.156 h 43.95 V 11.469 Z m 55.95,0 v 27.156 h 43.9 V 11.469 Z m 55.9,0 v 27.156 h 43.9 V 11.469 Z m 55.9,0 v 27.156 h 43.9 V 11.469 Z m 55.9,0 v 27.156 h 43.9 V 11.469 Z m 55.9,0 v 27.156 h 43.9 V 11.469 Z m 55.9,0 v 27.156 h 44 V 11.469 Z m 56,0 v 27.156 h 43.9 V 11.469 Z m 55.9,0 V 38.625 H 1454 V 11.469 Z m 55.9,0 v 27.156 h 43.9 V 11.469 Z m 55.9,0 v 27.156 h 43.9 V 11.469 Z m 55.9,0 v 27.156 h 44 V 11.469 Z M 12.1,50.625 V 77.75 H 56.037 V 50.625 Z m 55.937,0 V 77.75 h 43.908 V 50.625 Z m 55.908,0 V 77.75 h 43.94 V 50.625 Z m 55.94,0 V 77.75 h 43.9 V 50.625 Z m 55.9,0 V 77.75 h 43.91 V 50.625 Z m 55.91,0 V 77.75 h 43.94 V 50.625 Z m 55.94,0 V 77.75 h 43.9 V 50.625 Z m 55.9,0 V 77.75 h 43.91 V 50.625 Z m 55.91,0 V 77.75 h 43.94 V 50.625 Z m 55.94,0 V 77.75 h 43.9 V 50.625 Z m 55.9,0 V 77.75 h 43.94 V 50.625 Z m 55.94,0 V 77.75 h 43.91 V 50.625 Z m 55.91,0 V 77.75 h 43.9 V 50.625 Z m 55.9,0 V 77.75 h 43.94 V 50.625 Z m 55.94,0 V 77.75 h 43.91 V 50.625 Z m 55.91,0 V 77.75 h 43.9 V 50.625 Z m 55.9,0 V 77.75 h 43.94 V 50.625 Z m 55.94,0 V 77.75 h 43.95 V 50.625 Z m 55.95,0 V 77.75 h 43.9 V 50.625 Z m 55.9,0 V 77.75 h 43.9 V 50.625 Z m 55.9,0 V 77.75 h 43.9 V 50.625 Z m 55.9,0 V 77.75 h 43.9 V 50.625 Z m 55.9,0 V 77.75 h 43.9 V 50.625 Z m 55.9,0 V 77.75 h 44 V 50.625 Z m 56,0 V 77.75 h 43.9 V 50.625 Z m 55.9,0 V 77.75 h 43.9 V 50.625 Z m 55.9,0 V 77.75 h 43.9 V 50.625 Z m 55.9,0 V 77.75 h 43.9 V 50.625 Z m 55.9,0 V 77.75 h 44 V 50.625 Z M 12.075,89.75 v 27.16 H 56.012 V 89.75 Z m 55.937,0 v 27.16 H 111.92 V 89.75 Z m 55.908,0 v 27.16 h 43.94 V 89.75 Z m 55.94,0 v 27.16 h 43.9 V 89.75 Z m 55.9,0 v 27.16 h 43.91 V 89.75 Z m 55.91,0 v 27.16 h 43.94 V 89.75 Z m 55.94,0 v 27.16 h 43.9 V 89.75 Z m 55.9,0 v 27.16 h 43.91 V 89.75 Z m 55.91,0 v 27.16 h 43.94 V 89.75 Z m 55.94,0 v 27.16 h 43.9 V 89.75 Z m 55.9,0 v 27.16 H 615.2 V 89.75 Z m 55.94,0 v 27.16 h 43.91 V 89.75 Z m 55.91,0 v 27.16 h 43.9 V 89.75 Z m 55.9,0 v 27.16 h 43.94 V 89.75 Z m 55.94,0 v 27.16 h 43.91 V 89.75 Z m 55.91,0 v 27.16 h 43.9 V 89.75 Z m 55.9,0 v 27.16 H 950.7 V 89.75 Z m 55.94,0 v 27.16 h 43.95 V 89.75 Z m 55.95,0 v 27.16 h 43.9 V 89.75 Z m 55.9,0 v 27.16 h 43.9 V 89.75 Z m 55.9,0 v 27.16 h 43.9 V 89.75 Z m 55.9,0 v 27.16 h 43.9 V 89.75 Z m 55.9,0 v 27.16 h 43.9 V 89.75 Z m 55.9,0 v 27.16 h 44 V 89.75 Z m 56,0 v 27.16 h 43.9 V 89.75 Z m 55.9,0 v 27.16 h 43.9 V 89.75 Z m 55.9,0 v 27.16 h 43.9 V 89.75 Z m 55.9,0 v 27.16 h 43.9 V 89.75 Z m 55.9,0 v 27.16 h 44 V 89.75 Z M 12.05,128.91 v 27.12 h 43.937 v -27.12 z m 55.937,0 v 27.12 h 43.908 v -27.12 z m 55.908,0 v 27.12 h 43.94 v -27.12 z m 55.94,0 v 27.12 h 43.9 v -27.12 z m 55.9,0 v 27.12 h 43.91 v -27.12 z m 55.91,0 v 27.12 h 43.94 v -27.12 z m 55.94,0 v 27.12 h 43.9 v -27.12 z m 55.9,0 v 27.12 h 43.91 v -27.12 z m 55.91,0 v 27.12 h 43.94 v -27.12 z m 55.94,0 v 27.12 h 43.9 v -27.12 z m 55.9,0 v 27.12 h 43.94 v -27.12 z m 55.94,0 v 27.12 h 43.91 v -27.12 z m 55.91,0 v 27.12 h 43.9 v -27.12 z m 55.9,0 v 27.12 h 43.94 v -27.12 z m 55.94,0 v 27.12 h 43.91 v -27.12 z m 55.91,0 v 27.12 h 43.9 v -27.12 z m 55.9,0 v 27.12 h 43.94 v -27.12 z m 55.94,0 v 27.12 h 43.95 v -27.12 z m 55.95,0 v 27.12 h 43.9 v -27.12 z m 55.9,0 v 27.12 h 43.9 v -27.12 z m 55.9,0 v 27.12 h 43.9 v -27.12 z m 55.9,0 v 27.12 h 43.9 v -27.12 z m 55.9,0 v 27.12 h 43.9 v -27.12 z m 55.9,0 v 27.12 h 44 v -27.12 z m 56,0 v 27.12 h 43.9 v -27.12 z m 55.9,0 v 27.12 h 43.9 v -27.12 z m 55.9,0 v 27.12 h 43.9 v -27.12 z m 55.9,0 v 27.12 h 43.9 v -27.12 z m 55.9,0 v 27.12 h 44 v -27.12 z m -1565.7,39.12 v 27.16 h 43.937 v -27.16 z m 55.937,0 v 27.16 h 43.908 v -27.16 z m 55.908,0 v 27.16 h 43.94 v -27.16 z m 55.94,0 v 27.16 h 43.9 v -27.16 z m 55.9,0 v 27.16 h 43.91 v -27.16 z m 55.91,0 v 27.16 h 43.94 v -27.16 z m 55.94,0 v 27.16 h 43.9 v -27.16 z m 55.9,0 v 27.16 h 43.91 v -27.16 z m 55.91,0 v 27.16 h 43.94 v -27.16 z m 55.94,0 v 27.16 h 43.9 v -27.16 z m 55.9,0 v 27.16 h 43.94 v -27.16 z m 55.94,0 v 27.16 h 43.91 v -27.16 z m 55.91,0 v 27.16 h 43.9 v -27.16 z m 55.9,0 v 27.16 h 43.94 v -27.16 z m 55.94,0 v 27.16 h 43.91 v -27.16 z m 55.91,0 v 27.16 h 43.9 v -27.16 z m 55.9,0 v 27.16 h 43.94 v -27.16 z m 55.94,0 v 27.16 h 43.95 v -27.16 z m 55.95,0 v 27.16 h 43.9 v -27.16 z m 55.9,0 v 27.16 h 43.9 v -27.16 z m 55.9,0 v 27.16 h 43.9 v -27.16 z m 55.9,0 v 27.16 h 43.9 v -27.16 z m 55.9,0 v 27.16 h 43.9 v -27.16 z m 55.9,0 v 27.16 h 44 v -27.16 z m 56,0 v 27.16 h 43.9 v -27.16 z m 55.9,0 v 27.16 h 43.9 v -27.16 z m 55.9,0 v 27.16 h 43.9 v -27.16 z m 55.9,0 v 27.16 h 43.9 v -27.16 z m 55.9,0 v 27.16 h 44 V 168.03 Z M 12,207.19 v 27.12 h 43.937 v -27.12 z m 55.937,0 v 27.12 h 43.908 v -27.12 z m 55.908,0 v 27.12 h 43.94 v -27.12 z m 55.94,0 v 27.12 h 43.9 v -27.12 z m 55.9,0 v 27.12 h 43.91 v -27.12 z m 55.91,0 v 27.12 h 43.94 v -27.12 z m 55.94,0 v 27.12 h 43.9 v -27.12 z m 55.9,0 v 27.12 h 43.91 v -27.12 z m 55.91,0 v 27.12 h 43.94 v -27.12 z m 55.94,0 v 27.12 h 43.9 v -27.12 z m 55.9,0 v 27.12 h 43.94 v -27.12 z m 55.94,0 v 27.12 h 43.91 v -27.12 z m 55.91,0 v 27.12 h 43.9 v -27.12 z m 55.9,0 v 27.12 h 43.94 v -27.12 z m 55.94,0 v 27.12 h 43.91 v -27.12 z m 55.91,0 v 27.12 h 43.9 v -27.12 z m 55.9,0 v 27.12 h 43.94 v -27.12 z m 55.94,0 v 27.12 h 43.95 v -27.12 z m 55.95,0 v 27.12 h 43.9 v -27.12 z m 55.9,0 v 27.12 h 43.9 v -27.12 z m 55.9,0 v 27.12 h 43.9 v -27.12 z m 55.9,0 v 27.12 h 43.9 v -27.12 z m 55.9,0 v 27.12 h 43.9 v -27.12 z m 55.9,0 v 27.12 h 44 v -27.12 z m 56,0 v 27.12 h 43.9 v -27.12 z m 55.9,0 v 27.12 h 43.9 v -27.12 z m 55.9,0 v 27.12 h 43.9 v -27.12 z m 55.9,0 v 27.12 h 43.9 v -27.12 z m 55.9,0 v 27.12 h 44 v -27.12 z m -1565.7,39.12 v 27.16 h 43.937 v -27.16 z m 55.937,0 v 27.16 h 43.908 v -27.16 z m 55.908,0 v 27.16 h 43.94 v -27.16 z m 55.94,0 v 27.16 h 43.9 v -27.16 z m 55.9,0 v 27.16 h 43.91 v -27.16 z m 55.91,0 v 27.16 h 43.94 v -27.16 z m 55.94,0 v 27.16 h 43.9 v -27.16 z m 55.9,0 v 27.16 h 43.91 v -27.16 z m 55.91,0 v 27.16 h 43.94 v -27.16 z m 55.94,0 v 27.16 h 43.9 v -27.16 z m 55.9,0 v 27.16 h 43.94 v -27.16 z m 55.94,0 v 27.16 h 43.91 v -27.16 z m 55.91,0 v 27.16 h 43.9 v -27.16 z m 55.9,0 v 27.16 h 43.94 v -27.16 z m 55.94,0 v 27.16 h 43.91 v -27.16 z m 55.91,0 v 27.16 h 43.9 v -27.16 z m 55.9,0 v 27.16 h 43.94 v -27.16 z m 55.94,0 v 27.16 h 43.95 v -27.16 z m 55.95,0 v 27.16 h 43.9 v -27.16 z m 55.9,0 v 27.16 h 43.9 v -27.16 z m 55.9,0 v 27.16 h 43.9 v -27.16 z m 55.9,0 v 27.16 h 43.9 v -27.16 z m 55.9,0 v 27.16 h 43.9 v -27.16 z m 55.9,0 v 27.16 h 44 v -27.16 z m 56,0 v 27.16 h 43.9 v -27.16 z m 55.9,0 v 27.16 h 43.9 v -27.16 z m 55.9,0 v 27.16 h 43.9 v -27.16 z m 55.9,0 v 27.16 h 43.9 v -27.16 z m 55.9,0 v 27.16 h 44 V 246.31 Z M 11.95,285.47 v 27.15 h 43.937 v -27.15 z m 55.937,0 v 27.15 h 43.908 v -27.15 z m 55.908,0 v 27.15 h 43.94 v -27.15 z m 55.94,0 v 27.15 h 43.9 v -27.15 z m 55.9,0 v 27.15 h 43.91 v -27.15 z m 55.91,0 v 27.15 h 43.94 v -27.15 z m 55.94,0 v 27.15 h 43.9 v -27.15 z m 55.9,0 v 27.15 h 43.91 v -27.15 z m 55.91,0 v 27.15 h 43.94 v -27.15 z m 55.94,0 v 27.15 h 43.9 v -27.15 z m 55.9,0 v 27.15 h 43.94 v -27.15 z m 55.94,0 v 27.15 h 43.91 v -27.15 z m 55.91,0 v 27.15 h 43.9 v -27.15 z m 55.9,0 v 27.15 h 43.94 v -27.15 z m 55.94,0 v 27.15 h 43.91 v -27.15 z m 55.91,0 v 27.15 h 43.9 v -27.15 z m 55.9,0 v 27.15 h 43.94 v -27.15 z m 55.94,0 v 27.15 h 43.95 v -27.15 z m 55.95,0 v 27.15 h 43.9 v -27.15 z m 55.9,0 v 27.15 h 43.9 v -27.15 z m 55.9,0 v 27.15 h 43.9 v -27.15 z m 55.9,0 v 27.15 h 43.9 v -27.15 z m 55.9,0 v 27.15 h 43.9 v -27.15 z m 55.9,0 v 27.15 h 44 v -27.15 z m 56,0 v 27.15 h 43.9 v -27.15 z m 55.9,0 v 27.15 h 43.9 v -27.15 z m 55.9,0 v 27.15 h 43.9 v -27.15 z m 55.9,0 v 27.15 h 43.9 v -27.15 z m 55.9,0 v 27.15 h 44 v -27.15 z m -1565.7,39.15 v 27.13 h 43.937 v -27.13 z m 55.937,0 v 27.13 h 43.908 v -27.13 z m 55.908,0 v 27.13 h 43.94 v -27.13 z m 55.94,0 v 27.13 h 43.9 v -27.13 z m 55.9,0 v 27.13 h 43.91 v -27.13 z m 55.91,0 v 27.13 h 43.94 v -27.13 z m 55.94,0 v 27.13 h 43.9 v -27.13 z m 55.9,0 v 27.13 h 43.91 v -27.13 z m 55.91,0 v 27.13 h 43.94 v -27.13 z m 55.94,0 v 27.13 h 43.9 v -27.13 z m 55.9,0 v 27.13 h 43.94 v -27.13 z m 55.94,0 v 27.13 h 43.91 v -27.13 z m 55.91,0 v 27.13 h 43.9 v -27.13 z m 55.9,0 v 27.13 h 43.94 v -27.13 z m 55.94,0 v 27.13 h 43.91 v -27.13 z m 55.91,0 v 27.13 h 43.9 v -27.13 z m 55.9,0 v 27.13 h 43.94 v -27.13 z m 55.94,0 v 27.13 h 43.95 v -27.13 z m 55.95,0 v 27.13 h 43.9 v -27.13 z m 55.9,0 v 27.13 h 43.9 v -27.13 z m 55.9,0 v 27.13 h 43.9 v -27.13 z m 55.9,0 v 27.13 h 43.9 v -27.13 z m 55.9,0 v 27.13 h 43.9 v -27.13 z m 55.9,0 v 27.13 h 44 v -27.13 z m 56,0 v 27.13 h 43.9 v -27.13 z m 55.9,0 v 27.13 h 43.9 v -27.13 z m 55.9,0 v 27.13 h 43.9 v -27.13 z m 55.9,0 v 27.13 h 43.9 v -27.13 z m 55.9,0 v 27.13 h 44 V 324.62 Z M 11.9,363.75 v 27.16 h 43.937 v -27.16 z m 55.937,0 v 27.16 h 43.908 v -27.16 z m 55.908,0 v 27.16 h 43.94 v -27.16 z m 55.94,0 v 27.16 h 43.9 v -27.16 z m 55.9,0 v 27.16 h 43.91 v -27.16 z m 55.91,0 v 27.16 h 43.94 v -27.16 z m 55.94,0 v 27.16 h 43.9 v -27.16 z m 55.9,0 v 27.16 h 43.91 v -27.16 z m 55.91,0 v 27.16 h 43.94 v -27.16 z m 55.94,0 v 27.16 h 43.9 v -27.16 z m 55.9,0 v 27.16 h 43.94 v -27.16 z m 55.94,0 v 27.16 h 43.91 v -27.16 z m 55.91,0 v 27.16 h 43.9 v -27.16 z m 55.9,0 v 27.16 h 43.94 v -27.16 z m 55.94,0 v 27.16 h 43.91 v -27.16 z m 55.91,0 v 27.16 h 43.9 v -27.16 z m 55.9,0 v 27.16 h 43.94 v -27.16 z m 55.94,0 v 27.16 h 43.95 v -27.16 z m 55.95,0 v 27.16 h 43.9 v -27.16 z m 55.9,0 v 27.16 h 43.9 v -27.16 z m 55.9,0 v 27.16 h 43.9 v -27.16 z m 55.9,0 v 27.16 h 43.9 v -27.16 z m 55.9,0 v 27.16 h 43.9 v -27.16 z m 55.9,0 v 27.16 h 44 v -27.16 z m 56,0 v 27.16 h 43.9 v -27.16 z m 55.9,0 v 27.16 h 43.9 v -27.16 z m 55.9,0 v 27.16 h 43.9 v -27.16 z m 55.9,0 v 27.16 h 43.9 v -27.16 z m 55.9,0 v 27.16 h 44 v -27.16 z m -1565.7,39.16 v 27.12 h 43.937 v -27.12 z m 55.937,0 v 27.12 h 43.908 v -27.12 z m 55.908,0 v 27.12 h 43.94 v -27.12 z m 55.94,0 v 27.12 h 43.9 v -27.12 z m 55.9,0 v 27.12 h 43.91 v -27.12 z m 55.91,0 v 27.12 h 43.94 v -27.12 z m 55.94,0 v 27.12 h 43.9 v -27.12 z m 55.9,0 v 27.12 h 43.91 v -27.12 z m 55.91,0 v 27.12 h 43.94 v -27.12 z m 55.94,0 v 27.12 h 43.9 v -27.12 z m 55.9,0 v 27.12 H 615 v -27.12 z m 55.94,0 v 27.12 h 43.91 v -27.12 z m 55.91,0 v 27.12 h 43.9 v -27.12 z m 55.9,0 v 27.12 h 43.94 v -27.12 z m 55.94,0 v 27.12 h 43.91 v -27.12 z m 55.91,0 v 27.12 h 43.9 v -27.12 z m 55.9,0 v 27.12 h 43.94 v -27.12 z m 55.94,0 v 27.12 h 43.95 v -27.12 z m 55.95,0 v 27.12 h 43.9 v -27.12 z m 55.9,0 v 27.12 h 43.9 v -27.12 z m 55.9,0 v 27.12 h 43.9 v -27.12 z m 55.9,0 v 27.12 h 43.9 v -27.12 z m 55.9,0 v 27.12 h 43.9 v -27.12 z m 55.9,0 v 27.12 h 44 v -27.12 z m 56,0 v 27.12 h 43.9 v -27.12 z m 55.9,0 v 27.12 h 43.9 v -27.12 z m 55.9,0 v 27.12 h 43.9 v -27.12 z m 55.9,0 v 27.12 h 43.9 v -27.12 z m 55.9,0 v 27.12 h 44 v -27.12 z"
     stroke="url(#linearGradient13026)"
     stroke-miterlimit="4"
     stroke-dasharray="none"
     stroke-width="3"
     fill="none">
    <animate
       attributeName="stroke-dashoffset"
       from="200"
       to="0"
       dur="1s"
       repeatCount="indefinite" />
<!--    <animate
       attributeName="fill"
       attributeType="XML"
       from="#000000"
       to="#008000"
       dur="0.9s"
       repeatCount="indefinite" />-->
  </path>
</svg>
