<?xml version="1.0" encoding="UTF-8"?>
<svg version="1.1" viewBox="0 0 190.01 100" xmlns="http://www.w3.org/2000/svg" xmlns:cc="http://creativecommons.org/ns#" xmlns:dc="http://purl.org/dc/elements/1.1/" xmlns:rdf="http://www.w3.org/1999/02/22-rdf-syntax-ns#">
 <g fill-rule="evenodd">
  <path d="m0 0h190v100h-190z" color="#000000" fill="#fff"/>
  <path d="m0.00992 0v7.6875h190v-7.6875h-190zm0 15.375v7.6875h190v-7.6875h-190zm0 15.375v7.6875h190v-7.6875h-190zm0 15.375v7.7188h190v-7.7188h-190zm0 15.406v7.6875h190v-7.6875h-190zm0 15.375v7.6875h190v-7.6875h-190zm0 15.406v7.6875h190v-7.6875h-190z" color="#000000" fill="#b22234"/>
  <path d="m0 0h76v53.85h-76z" color="#000000" fill="#3c3b6e"/>
 </g>
 <g transform="translate(261.88 3e-5)" fill="#fff" fill-rule="evenodd">
  <path transform="matrix(.36337 -.036418 .036476 .36279 -155.3 .3585)" d="m-270.09-6.0371-4.7874-4.3172-5.5804 3.2275 2.6266-5.8872-4.794-4.3099 6.4107 0.67875 2.6176-5.8912 1.3355 6.3067 6.4117 0.66895-5.5853 3.219z" color="#000000"/>
  <path transform="matrix(.36337 -.036418 .036476 .36279 -91.96 .3585)" d="m-270.09-6.0371-4.7874-4.3172-5.5804 3.2275 2.6266-5.8872-4.794-4.3099 6.4107 0.67875 2.6176-5.8912 1.3355 6.3067 6.4117 0.66895-5.5853 3.219z" color="#000000"/>
  <path transform="matrix(.36337 -.036418 .036476 .36279 -104.63 .3585)" d="m-270.09-6.0371-4.7874-4.3172-5.5804 3.2275 2.6266-5.8872-4.794-4.3099 6.4107 0.67875 2.6176-5.8912 1.3355 6.3067 6.4117 0.66895-5.5853 3.219z" color="#000000"/>
  <path transform="matrix(.36337 -.036418 .036476 .36279 -117.3 .3585)" d="m-270.09-6.0371-4.7874-4.3172-5.5804 3.2275 2.6266-5.8872-4.794-4.3099 6.4107 0.67875 2.6176-5.8912 1.3355 6.3067 6.4117 0.66895-5.5853 3.219z" color="#000000"/>
  <path transform="matrix(.36337 -.036418 .036476 .36279 -129.96 .3585)" d="m-270.09-6.0371-4.7874-4.3172-5.5804 3.2275 2.6266-5.8872-4.794-4.3099 6.4107 0.67875 2.6176-5.8912 1.3355 6.3067 6.4117 0.66895-5.5853 3.219z" color="#000000"/>
  <path transform="matrix(.36337 -.036418 .036476 .36279 -142.63 .3585)" d="m-270.09-6.0371-4.7874-4.3172-5.5804 3.2275 2.6266-5.8872-4.794-4.3099 6.4107 0.67875 2.6176-5.8912 1.3355 6.3067 6.4117 0.66895-5.5853 3.219z" color="#000000"/>
 </g>
 <g transform="translate(261.88 43.071)" fill="#fff" fill-rule="evenodd">
  <path transform="matrix(.36337 -.036418 .036476 .36279 -155.3 .3585)" d="m-270.09-6.0371-4.7874-4.3172-5.5804 3.2275 2.6266-5.8872-4.794-4.3099 6.4107 0.67875 2.6176-5.8912 1.3355 6.3067 6.4117 0.66895-5.5853 3.219z" color="#000000"/>
  <path transform="matrix(.36337 -.036418 .036476 .36279 -91.96 .3585)" d="m-270.09-6.0371-4.7874-4.3172-5.5804 3.2275 2.6266-5.8872-4.794-4.3099 6.4107 0.67875 2.6176-5.8912 1.3355 6.3067 6.4117 0.66895-5.5853 3.219z" color="#000000"/>
  <path transform="matrix(.36337 -.036418 .036476 .36279 -104.63 .3585)" d="m-270.09-6.0371-4.7874-4.3172-5.5804 3.2275 2.6266-5.8872-4.794-4.3099 6.4107 0.67875 2.6176-5.8912 1.3355 6.3067 6.4117 0.66895-5.5853 3.219z" color="#000000"/>
  <path transform="matrix(.36337 -.036418 .036476 .36279 -117.3 .3585)" d="m-270.09-6.0371-4.7874-4.3172-5.5804 3.2275 2.6266-5.8872-4.794-4.3099 6.4107 0.67875 2.6176-5.8912 1.3355 6.3067 6.4117 0.66895-5.5853 3.219z" color="#000000"/>
  <path transform="matrix(.36337 -.036418 .036476 .36279 -129.96 .3585)" d="m-270.09-6.0371-4.7874-4.3172-5.5804 3.2275 2.6266-5.8872-4.794-4.3099 6.4107 0.67875 2.6176-5.8912 1.3355 6.3067 6.4117 0.66895-5.5853 3.219z" color="#000000"/>
  <path transform="matrix(.36337 -.036418 .036476 .36279 -142.63 .3585)" d="m-270.09-6.0371-4.7874-4.3172-5.5804 3.2275 2.6266-5.8872-4.794-4.3099 6.4107 0.67875 2.6176-5.8912 1.3355 6.3067 6.4117 0.66895-5.5853 3.219z" color="#000000"/>
 </g>
 <g transform="translate(255.55 26.919)" fill="#fff" fill-rule="evenodd">
  <path transform="matrix(.36337 -.036418 .036476 .36279 -91.96 .3585)" d="m-270.09-6.0371-4.7874-4.3172-5.5804 3.2275 2.6266-5.8872-4.794-4.3099 6.4107 0.67875 2.6176-5.8912 1.3355 6.3067 6.4117 0.66895-5.5853 3.219z" color="#000000"/>
  <path transform="matrix(.36337 -.036418 .036476 .36279 -104.63 .3585)" d="m-270.09-6.0371-4.7874-4.3172-5.5804 3.2275 2.6266-5.8872-4.794-4.3099 6.4107 0.67875 2.6176-5.8912 1.3355 6.3067 6.4117 0.66895-5.5853 3.219z" color="#000000"/>
  <path transform="matrix(.36337 -.036418 .036476 .36279 -117.3 .3585)" d="m-270.09-6.0371-4.7874-4.3172-5.5804 3.2275 2.6266-5.8872-4.794-4.3099 6.4107 0.67875 2.6176-5.8912 1.3355 6.3067 6.4117 0.66895-5.5853 3.219z" color="#000000"/>
  <path transform="matrix(.36337 -.036418 .036476 .36279 -129.96 .3585)" d="m-270.09-6.0371-4.7874-4.3172-5.5804 3.2275 2.6266-5.8872-4.794-4.3099 6.4107 0.67875 2.6176-5.8912 1.3355 6.3067 6.4117 0.66895-5.5853 3.219z" color="#000000"/>
  <path transform="matrix(.36337 -.036418 .036476 .36279 -142.63 .3585)" d="m-270.09-6.0371-4.7874-4.3172-5.5804 3.2275 2.6266-5.8872-4.794-4.3099 6.4107 0.67875 2.6176-5.8912 1.3355 6.3067 6.4117 0.66895-5.5853 3.219z" color="#000000"/>
 </g>
 <g transform="translate(255.55 5.3838)" fill="#fff" fill-rule="evenodd">
  <path transform="matrix(.36337 -.036418 .036476 .36279 -91.96 .3585)" d="m-270.09-6.0371-4.7874-4.3172-5.5804 3.2275 2.6266-5.8872-4.794-4.3099 6.4107 0.67875 2.6176-5.8912 1.3355 6.3067 6.4117 0.66895-5.5853 3.219z" color="#000000"/>
  <path transform="matrix(.36337 -.036418 .036476 .36279 -104.63 .3585)" d="m-270.09-6.0371-4.7874-4.3172-5.5804 3.2275 2.6266-5.8872-4.794-4.3099 6.4107 0.67875 2.6176-5.8912 1.3355 6.3067 6.4117 0.66895-5.5853 3.219z" color="#000000"/>
  <path transform="matrix(.36337 -.036418 .036476 .36279 -117.3 .3585)" d="m-270.09-6.0371-4.7874-4.3172-5.5804 3.2275 2.6266-5.8872-4.794-4.3099 6.4107 0.67875 2.6176-5.8912 1.3355 6.3067 6.4117 0.66895-5.5853 3.219z" color="#000000"/>
  <path transform="matrix(.36337 -.036418 .036476 .36279 -129.96 .3585)" d="m-270.09-6.0371-4.7874-4.3172-5.5804 3.2275 2.6266-5.8872-4.794-4.3099 6.4107 0.67875 2.6176-5.8912 1.3355 6.3067 6.4117 0.66895-5.5853 3.219z" color="#000000"/>
  <path transform="matrix(.36337 -.036418 .036476 .36279 -142.63 .3585)" d="m-270.09-6.0371-4.7874-4.3172-5.5804 3.2275 2.6266-5.8872-4.794-4.3099 6.4107 0.67875 2.6176-5.8912 1.3355 6.3067 6.4117 0.66895-5.5853 3.219z" color="#000000"/>
 </g>
 <g transform="translate(255.55 37.687)" fill="#fff" fill-rule="evenodd">
  <path transform="matrix(.36337 -.036418 .036476 .36279 -91.96 .3585)" d="m-270.09-6.0371-4.7874-4.3172-5.5804 3.2275 2.6266-5.8872-4.794-4.3099 6.4107 0.67875 2.6176-5.8912 1.3355 6.3067 6.4117 0.66895-5.5853 3.219z" color="#000000"/>
  <path transform="matrix(.36337 -.036418 .036476 .36279 -104.63 .3585)" d="m-270.09-6.0371-4.7874-4.3172-5.5804 3.2275 2.6266-5.8872-4.794-4.3099 6.4107 0.67875 2.6176-5.8912 1.3355 6.3067 6.4117 0.66895-5.5853 3.219z" color="#000000"/>
  <path transform="matrix(.36337 -.036418 .036476 .36279 -117.3 .3585)" d="m-270.09-6.0371-4.7874-4.3172-5.5804 3.2275 2.6266-5.8872-4.794-4.3099 6.4107 0.67875 2.6176-5.8912 1.3355 6.3067 6.4117 0.66895-5.5853 3.219z" color="#000000"/>
  <path transform="matrix(.36337 -.036418 .036476 .36279 -129.96 .3585)" d="m-270.09-6.0371-4.7874-4.3172-5.5804 3.2275 2.6266-5.8872-4.794-4.3099 6.4107 0.67875 2.6176-5.8912 1.3355 6.3067 6.4117 0.66895-5.5853 3.219z" color="#000000"/>
  <path transform="matrix(.36337 -.036418 .036476 .36279 -142.63 .3585)" d="m-270.09-6.0371-4.7874-4.3172-5.5804 3.2275 2.6266-5.8872-4.794-4.3099 6.4107 0.67875 2.6176-5.8912 1.3355 6.3067 6.4117 0.66895-5.5853 3.219z" color="#000000"/>
 </g>
 <g transform="translate(261.88 21.535)" fill="#fff" fill-rule="evenodd">
  <path transform="matrix(.36337 -.036418 .036476 .36279 -155.3 .3585)" d="m-270.09-6.0371-4.7874-4.3172-5.5804 3.2275 2.6266-5.8872-4.794-4.3099 6.4107 0.67875 2.6176-5.8912 1.3355 6.3067 6.4117 0.66895-5.5853 3.219z" color="#000000"/>
  <path transform="matrix(.36337 -.036418 .036476 .36279 -91.96 .3585)" d="m-270.09-6.0371-4.7874-4.3172-5.5804 3.2275 2.6266-5.8872-4.794-4.3099 6.4107 0.67875 2.6176-5.8912 1.3355 6.3067 6.4117 0.66895-5.5853 3.219z" color="#000000"/>
  <path transform="matrix(.36337 -.036418 .036476 .36279 -104.63 .3585)" d="m-270.09-6.0371-4.7874-4.3172-5.5804 3.2275 2.6266-5.8872-4.794-4.3099 6.4107 0.67875 2.6176-5.8912 1.3355 6.3067 6.4117 0.66895-5.5853 3.219z" color="#000000"/>
  <path transform="matrix(.36337 -.036418 .036476 .36279 -117.3 .3585)" d="m-270.09-6.0371-4.7874-4.3172-5.5804 3.2275 2.6266-5.8872-4.794-4.3099 6.4107 0.67875 2.6176-5.8912 1.3355 6.3067 6.4117 0.66895-5.5853 3.219z" color="#000000"/>
  <path transform="matrix(.36337 -.036418 .036476 .36279 -129.96 .3585)" d="m-270.09-6.0371-4.7874-4.3172-5.5804 3.2275 2.6266-5.8872-4.794-4.3099 6.4107 0.67875 2.6176-5.8912 1.3355 6.3067 6.4117 0.66895-5.5853 3.219z" color="#000000"/>
  <path transform="matrix(.36337 -.036418 .036476 .36279 -142.63 .3585)" d="m-270.09-6.0371-4.7874-4.3172-5.5804 3.2275 2.6266-5.8872-4.794-4.3099 6.4107 0.67875 2.6176-5.8912 1.3355 6.3067 6.4117 0.66895-5.5853 3.219z" color="#000000"/>
 </g>
 <g transform="translate(261.88 32.303)" fill="#fff" fill-rule="evenodd">
  <path transform="matrix(.36337 -.036418 .036476 .36279 -155.3 .3585)" d="m-270.09-6.0371-4.7874-4.3172-5.5804 3.2275 2.6266-5.8872-4.794-4.3099 6.4107 0.67875 2.6176-5.8912 1.3355 6.3067 6.4117 0.66895-5.5853 3.219z" color="#000000"/>
  <path transform="matrix(.36337 -.036418 .036476 .36279 -91.96 .3585)" d="m-270.09-6.0371-4.7874-4.3172-5.5804 3.2275 2.6266-5.8872-4.794-4.3099 6.4107 0.67875 2.6176-5.8912 1.3355 6.3067 6.4117 0.66895-5.5853 3.219z" color="#000000"/>
  <path transform="matrix(.36337 -.036418 .036476 .36279 -104.63 .3585)" d="m-270.09-6.0371-4.7874-4.3172-5.5804 3.2275 2.6266-5.8872-4.794-4.3099 6.4107 0.67875 2.6176-5.8912 1.3355 6.3067 6.4117 0.66895-5.5853 3.219z" color="#000000"/>
  <path transform="matrix(.36337 -.036418 .036476 .36279 -117.3 .3585)" d="m-270.09-6.0371-4.7874-4.3172-5.5804 3.2275 2.6266-5.8872-4.794-4.3099 6.4107 0.67875 2.6176-5.8912 1.3355 6.3067 6.4117 0.66895-5.5853 3.219z" color="#000000"/>
  <path transform="matrix(.36337 -.036418 .036476 .36279 -129.96 .3585)" d="m-270.09-6.0371-4.7874-4.3172-5.5804 3.2275 2.6266-5.8872-4.794-4.3099 6.4107 0.67875 2.6176-5.8912 1.3355 6.3067 6.4117 0.66895-5.5853 3.219z" color="#000000"/>
  <path transform="matrix(.36337 -.036418 .036476 .36279 -142.63 .3585)" d="m-270.09-6.0371-4.7874-4.3172-5.5804 3.2275 2.6266-5.8872-4.794-4.3099 6.4107 0.67875 2.6176-5.8912 1.3355 6.3067 6.4117 0.66895-5.5853 3.219z" color="#000000"/>
 </g>
 <g transform="translate(261.88 10.768)" fill="#fff" fill-rule="evenodd">
  <path transform="matrix(.36337 -.036418 .036476 .36279 -155.3 .3585)" d="m-270.09-6.0371-4.7874-4.3172-5.5804 3.2275 2.6266-5.8872-4.794-4.3099 6.4107 0.67875 2.6176-5.8912 1.3355 6.3067 6.4117 0.66895-5.5853 3.219z" color="#000000"/>
  <path transform="matrix(.36337 -.036418 .036476 .36279 -91.96 .3585)" d="m-270.09-6.0371-4.7874-4.3172-5.5804 3.2275 2.6266-5.8872-4.794-4.3099 6.4107 0.67875 2.6176-5.8912 1.3355 6.3067 6.4117 0.66895-5.5853 3.219z" color="#000000"/>
  <path transform="matrix(.36337 -.036418 .036476 .36279 -104.63 .3585)" d="m-270.09-6.0371-4.7874-4.3172-5.5804 3.2275 2.6266-5.8872-4.794-4.3099 6.4107 0.67875 2.6176-5.8912 1.3355 6.3067 6.4117 0.66895-5.5853 3.219z" color="#000000"/>
  <path transform="matrix(.36337 -.036418 .036476 .36279 -117.3 .3585)" d="m-270.09-6.0371-4.7874-4.3172-5.5804 3.2275 2.6266-5.8872-4.794-4.3099 6.4107 0.67875 2.6176-5.8912 1.3355 6.3067 6.4117 0.66895-5.5853 3.219z" color="#000000"/>
  <path transform="matrix(.36337 -.036418 .036476 .36279 -129.96 .3585)" d="m-270.09-6.0371-4.7874-4.3172-5.5804 3.2275 2.6266-5.8872-4.794-4.3099 6.4107 0.67875 2.6176-5.8912 1.3355 6.3067 6.4117 0.66895-5.5853 3.219z" color="#000000"/>
  <path transform="matrix(.36337 -.036418 .036476 .36279 -142.63 .3585)" d="m-270.09-6.0371-4.7874-4.3172-5.5804 3.2275 2.6266-5.8872-4.794-4.3099 6.4107 0.67875 2.6176-5.8912 1.3355 6.3067 6.4117 0.66895-5.5853 3.219z" color="#000000"/>
 </g>
 <g transform="translate(255.55 16.152)" fill="#fff" fill-rule="evenodd">
  <path transform="matrix(.36337 -.036418 .036476 .36279 -91.96 .3585)" d="m-270.09-6.0371-4.7874-4.3172-5.5804 3.2275 2.6266-5.8872-4.794-4.3099 6.4107 0.67875 2.6176-5.8912 1.3355 6.3067 6.4117 0.66895-5.5853 3.219z" color="#000000"/>
  <path transform="matrix(.36337 -.036418 .036476 .36279 -104.63 .3585)" d="m-270.09-6.0371-4.7874-4.3172-5.5804 3.2275 2.6266-5.8872-4.794-4.3099 6.4107 0.67875 2.6176-5.8912 1.3355 6.3067 6.4117 0.66895-5.5853 3.219z" color="#000000"/>
  <path transform="matrix(.36337 -.036418 .036476 .36279 -117.3 .3585)" d="m-270.09-6.0371-4.7874-4.3172-5.5804 3.2275 2.6266-5.8872-4.794-4.3099 6.4107 0.67875 2.6176-5.8912 1.3355 6.3067 6.4117 0.66895-5.5853 3.219z" color="#000000"/>
  <path transform="matrix(.36337 -.036418 .036476 .36279 -129.96 .3585)" d="m-270.09-6.0371-4.7874-4.3172-5.5804 3.2275 2.6266-5.8872-4.794-4.3099 6.4107 0.67875 2.6176-5.8912 1.3355 6.3067 6.4117 0.66895-5.5853 3.219z" color="#000000"/>
  <path transform="matrix(.36337 -.036418 .036476 .36279 -142.63 .3585)" d="m-270.09-6.0371-4.7874-4.3172-5.5804 3.2275 2.6266-5.8872-4.794-4.3099 6.4107 0.67875 2.6176-5.8912 1.3355 6.3067 6.4117 0.66895-5.5853 3.219z" color="#000000"/>
 </g>
 <metadata>
  <rdf:RDF>
   <cc:Work>
    <dc:format>image/svg+xml</dc:format>
    <dc:type rdf:resource="http://purl.org/dc/dcmitype/StillImage"/>
    <cc:license rdf:resource="http://creativecommons.org/licenses/publicdomain/"/>
    <dc:publisher>
     <cc:Agent rdf:about="http://openclipart.org/">
      <dc:title>Openclipart</dc:title>
     </cc:Agent>
    </dc:publisher>
   </cc:Work>
   <cc:License rdf:about="http://creativecommons.org/licenses/publicdomain/">
    <cc:permits rdf:resource="http://creativecommons.org/ns#Reproduction"/>
    <cc:permits rdf:resource="http://creativecommons.org/ns#Distribution"/>
    <cc:permits rdf:resource="http://creativecommons.org/ns#DerivativeWorks"/>
   </cc:License>
  </rdf:RDF>
 </metadata>
</svg>
